<svg width="55" height="21" viewBox="0 0 55 21" fill="none" xmlns="http://www.w3.org/2000/svg">
<path d="M3.43555 0.644531C4.9069 0.696615 6.0625 0.722656 6.90234 0.722656C7.69661 0.722656 8.82943 0.696615 10.3008 0.644531C10.3268 0.748698 10.3398 0.820312 10.3398 0.859375C10.3398 0.93099 10.3268 1.01237 10.3008 1.10352C10.0013 1.12956 9.75716 1.15885 9.56836 1.19141C9.37956 1.21745 9.14844 1.26302 8.875 1.32812C8.60156 1.39323 8.39323 1.48763 8.25 1.61133C8.10677 1.72852 8.03516 1.87174 8.03516 2.04102C8.02865 2.46419 8.01888 3.45703 8.00586 5.01953C7.99935 6.58203 7.98958 8.04362 7.97656 9.4043C7.96354 10.4915 7.94401 11.3835 7.91797 12.0801C7.89844 12.7702 7.85286 13.5384 7.78125 14.3848C7.71615 15.2246 7.62174 15.8984 7.49805 16.4062C7.38086 16.9206 7.2181 17.4447 7.00977 17.9785C6.80143 18.5189 6.54753 18.9323 6.24805 19.2188C5.95508 19.5052 5.59375 19.7396 5.16406 19.9219C4.73438 20.1042 4.23958 20.1953 3.67969 20.1953C2.73568 20.1953 2.00326 19.9642 1.48242 19.502C0.961589 19.0397 0.701172 18.4928 0.701172 17.8613C0.701172 17.321 0.844401 16.901 1.13086 16.6016C1.41732 16.3086 1.79492 16.1621 2.26367 16.1621C2.64779 16.1621 2.97656 16.2663 3.25 16.4746C3.52344 16.6829 3.66016 16.9922 3.66016 17.4023C3.66016 17.6237 3.60482 17.819 3.49414 17.9883C3.38346 18.1641 3.25977 18.291 3.12305 18.3691C2.99284 18.4538 2.8724 18.5286 2.76172 18.5938C2.65104 18.6654 2.5957 18.7142 2.5957 18.7402C2.5957 18.9876 2.6901 19.1895 2.87891 19.3457C3.07422 19.502 3.34115 19.5801 3.67969 19.5801C4.04427 19.5801 4.35026 19.5117 4.59766 19.375C4.85156 19.2383 5.05664 19.0462 5.21289 18.7988C5.37565 18.5514 5.49935 18.2064 5.58398 17.7637C5.66862 17.321 5.72396 16.849 5.75 16.3477C5.78255 15.8464 5.79883 15.2181 5.79883 14.4629C5.79883 8.0306 5.76628 3.88997 5.70117 2.04102C5.69466 1.87174 5.61979 1.72852 5.47656 1.61133C5.33333 1.48763 5.125 1.39323 4.85156 1.32812C4.57812 1.26302 4.34701 1.21745 4.1582 1.19141C3.97591 1.15885 3.73503 1.12956 3.43555 1.10352C3.40951 0.986328 3.39648 0.904948 3.39648 0.859375C3.39648 0.794271 3.40951 0.722656 3.43555 0.644531ZM12.5078 8.58398C12.5078 7.86784 12.8333 7.27865 13.4844 6.81641C14.1419 6.35417 14.9167 6.12305 15.8086 6.12305C16.9023 6.12305 17.6706 6.34115 18.1133 6.77734C18.5625 7.21354 18.7871 7.94922 18.7871 8.98438V13.0371C18.7871 13.4017 18.9206 13.584 19.1875 13.584C19.4023 13.584 19.6758 13.3236 20.0078 12.8027C20.2422 12.8223 20.4017 12.9264 20.4863 13.1152C20.4408 13.1803 20.3626 13.2975 20.252 13.4668C20.1413 13.6361 20.0599 13.7565 20.0078 13.8281C19.9557 13.8997 19.8743 14.0104 19.7637 14.1602C19.653 14.3034 19.5618 14.4108 19.4902 14.4824C19.4251 14.554 19.334 14.6387 19.2168 14.7363C19.1061 14.834 19.002 14.9089 18.9043 14.9609C18.8132 15.0065 18.7057 15.0456 18.582 15.0781C18.4583 15.1172 18.3346 15.1367 18.2109 15.1367C17.8854 15.1367 17.6152 15.0195 17.4004 14.7852C17.1921 14.5508 17.0684 14.1895 17.0293 13.7012C17.0228 13.7077 16.9219 13.8021 16.7266 13.9844C16.5312 14.1667 16.3945 14.2904 16.3164 14.3555C16.2448 14.4141 16.1048 14.5215 15.8965 14.6777C15.6947 14.8275 15.5221 14.9349 15.3789 15C15.2357 15.0651 15.0566 15.127 14.8418 15.1855C14.627 15.2507 14.4154 15.2832 14.207 15.2832C13.875 15.2832 13.5788 15.2376 13.3184 15.1465C13.0645 15.0553 12.8659 14.9447 12.7227 14.8145C12.5794 14.6842 12.4622 14.5345 12.3711 14.3652C12.2799 14.1895 12.2181 14.0299 12.1855 13.8867C12.1595 13.7435 12.1465 13.6003 12.1465 13.457C12.1465 13.0208 12.2181 12.653 12.3613 12.3535C12.5111 12.054 12.7845 11.7741 13.1816 11.5137C13.5853 11.2533 14.0801 11.0221 14.666 10.8203C15.252 10.6185 16.0397 10.3906 17.0293 10.1367V8.7793C17.0293 8.12174 16.8828 7.63021 16.5898 7.30469C16.3034 6.97917 15.916 6.81641 15.4277 6.81641C14.9915 6.81641 14.6237 6.9043 14.3242 7.08008C14.0312 7.24935 13.8522 7.44792 13.7871 7.67578C14.4251 7.77344 14.7441 8.12174 14.7441 8.7207C14.7441 8.99414 14.6465 9.23503 14.4512 9.44336C14.2559 9.65169 13.9824 9.75586 13.6309 9.75586C13.3379 9.75586 13.0775 9.65495 12.8496 9.45312C12.6217 9.24479 12.5078 8.95508 12.5078 8.58398ZM17.0293 12.8027V10.7617C16.4303 10.8984 15.9355 11.0482 15.5449 11.2109C15.1543 11.3672 14.8548 11.5397 14.6465 11.7285C14.4447 11.9173 14.3047 12.1126 14.2266 12.3145C14.1484 12.5098 14.1094 12.7376 14.1094 12.998C14.1094 13.3236 14.2038 13.5807 14.3926 13.7695C14.5879 13.9518 14.8255 14.043 15.1055 14.043C15.7565 14.043 16.3978 13.6296 17.0293 12.8027ZM21.1211 6.96289C22.3971 6.83268 23.4974 6.56576 24.4219 6.16211C24.5977 6.2207 24.7116 6.30534 24.7637 6.41602V7.55859C25.7663 6.60156 26.7721 6.12305 27.7812 6.12305C28.7839 6.12305 29.6009 6.4974 30.2324 7.24609C30.8639 7.98828 31.1797 8.99414 31.1797 10.2637C31.1797 10.7389 31.1276 11.2077 31.0234 11.6699C30.9193 12.1257 30.7467 12.5749 30.5059 13.0176C30.2715 13.4538 29.9785 13.8379 29.627 14.1699C29.2819 14.502 28.8424 14.7721 28.3086 14.9805C27.7747 15.1823 27.1855 15.2832 26.541 15.2832C25.9355 15.2832 25.3496 15.1693 24.7832 14.9414C24.7832 16.7122 24.8027 18.0176 24.8418 18.8574C24.8483 18.9941 24.9036 19.1146 25.0078 19.2188C25.112 19.3294 25.2324 19.4141 25.3691 19.4727C25.5059 19.5378 25.6914 19.5931 25.9258 19.6387C26.1602 19.6908 26.3522 19.7233 26.502 19.7363C26.6582 19.7559 26.86 19.7786 27.1074 19.8047C27.1465 19.8828 27.166 19.9609 27.166 20.0391C27.166 20.1172 27.1465 20.1921 27.1074 20.2637C25.7533 20.2181 24.653 20.1953 23.8066 20.1953C23.1556 20.1953 22.3288 20.2181 21.3262 20.2637C21.3001 20.1465 21.2871 20.0716 21.2871 20.0391C21.2871 20.013 21.3001 19.9349 21.3262 19.8047C21.554 19.7721 21.7298 19.7428 21.8535 19.7168C21.9772 19.6908 22.1432 19.6419 22.3516 19.5703C22.5599 19.5052 22.7161 19.4108 22.8203 19.2871C22.9245 19.1699 22.9798 19.0267 22.9863 18.8574C23.0124 18.2194 23.0254 16.7806 23.0254 14.541C23.0254 13.4993 23.0221 12.2201 23.0156 10.7031C23.0091 9.1862 23.0059 8.22591 23.0059 7.82227C22.6348 7.5944 22.0065 7.46094 21.1211 7.42188C21.0951 7.31771 21.082 7.23633 21.082 7.17773C21.082 7.13867 21.0951 7.06706 21.1211 6.96289ZM26.8438 7.40234C26.4206 7.40234 26.0495 7.48047 25.7305 7.63672C25.4115 7.79297 25.0892 8.02083 24.7637 8.32031V13.3984C25.1478 14.2253 25.8346 14.6387 26.8242 14.6387C27.0195 14.6387 27.2148 14.6061 27.4102 14.541C27.612 14.4759 27.8236 14.3522 28.0449 14.1699C28.2663 13.9876 28.4583 13.7565 28.6211 13.4766C28.7904 13.1966 28.9303 12.819 29.041 12.3438C29.1517 11.8685 29.207 11.3281 29.207 10.7227C29.207 10.0977 29.1257 9.54102 28.9629 9.05273C28.8001 8.56445 28.5365 8.16732 28.1719 7.86133C27.8073 7.55534 27.3646 7.40234 26.8438 7.40234ZM34.0508 8.58398C34.0508 7.86784 34.3763 7.27865 35.0273 6.81641C35.6849 6.35417 36.4596 6.12305 37.3516 6.12305C38.4453 6.12305 39.2135 6.34115 39.6562 6.77734C40.1055 7.21354 40.3301 7.94922 40.3301 8.98438V13.0371C40.3301 13.4017 40.4635 13.584 40.7305 13.584C40.9453 13.584 41.2188 13.3236 41.5508 12.8027C41.7852 12.8223 41.9447 12.9264 42.0293 13.1152C41.9837 13.1803 41.9056 13.2975 41.7949 13.4668C41.6842 13.6361 41.6029 13.7565 41.5508 13.8281C41.4987 13.8997 41.4173 14.0104 41.3066 14.1602C41.196 14.3034 41.1048 14.4108 41.0332 14.4824C40.9681 14.554 40.877 14.6387 40.7598 14.7363C40.6491 14.834 40.5449 14.9089 40.4473 14.9609C40.3561 15.0065 40.2487 15.0456 40.125 15.0781C40.0013 15.1172 39.8776 15.1367 39.7539 15.1367C39.4284 15.1367 39.1582 15.0195 38.9434 14.7852C38.735 14.5508 38.6113 14.1895 38.5723 13.7012C38.5658 13.7077 38.4648 13.8021 38.2695 13.9844C38.0742 14.1667 37.9375 14.2904 37.8594 14.3555C37.7878 14.4141 37.6478 14.5215 37.4395 14.6777C37.2376 14.8275 37.0651 14.9349 36.9219 15C36.7786 15.0651 36.5996 15.127 36.3848 15.1855C36.1699 15.2507 35.9583 15.2832 35.75 15.2832C35.418 15.2832 35.1217 15.2376 34.8613 15.1465C34.6074 15.0553 34.4089 14.9447 34.2656 14.8145C34.1224 14.6842 34.0052 14.5345 33.9141 14.3652C33.8229 14.1895 33.7611 14.0299 33.7285 13.8867C33.7025 13.7435 33.6895 13.6003 33.6895 13.457C33.6895 13.0208 33.7611 12.653 33.9043 12.3535C34.054 12.054 34.3275 11.7741 34.7246 11.5137C35.1283 11.2533 35.623 11.0221 36.209 10.8203C36.7949 10.6185 37.5827 10.3906 38.5723 10.1367V8.7793C38.5723 8.12174 38.4258 7.63021 38.1328 7.30469C37.8464 6.97917 37.459 6.81641 36.9707 6.81641C36.5345 6.81641 36.1667 6.9043 35.8672 7.08008C35.5742 7.24935 35.3952 7.44792 35.3301 7.67578C35.9681 7.77344 36.2871 8.12174 36.2871 8.7207C36.2871 8.99414 36.1895 9.23503 35.9941 9.44336C35.7988 9.65169 35.5254 9.75586 35.1738 9.75586C34.8809 9.75586 34.6204 9.65495 34.3926 9.45312C34.1647 9.24479 34.0508 8.95508 34.0508 8.58398ZM38.5723 12.8027V10.7617C37.9733 10.8984 37.4785 11.0482 37.0879 11.2109C36.6973 11.3672 36.3978 11.5397 36.1895 11.7285C35.9876 11.9173 35.8477 12.1126 35.7695 12.3145C35.6914 12.5098 35.6523 12.7376 35.6523 12.998C35.6523 13.3236 35.7467 13.5807 35.9355 13.7695C36.1309 13.9518 36.3685 14.043 36.6484 14.043C37.2995 14.043 37.9408 13.6296 38.5723 12.8027ZM48.4453 14.5996C48.4844 14.6777 48.5039 14.7591 48.5039 14.8438C48.5039 14.9089 48.4844 14.9805 48.4453 15.0586C47.5859 15.0195 46.7526 15 45.9453 15C45.151 15 44.3242 15.0195 43.4648 15.0586C43.4388 14.9544 43.4258 14.8828 43.4258 14.8438C43.4258 14.8112 43.4388 14.7298 43.4648 14.5996C43.6797 14.5736 43.8555 14.5475 43.9922 14.5215C44.1289 14.4889 44.2982 14.4401 44.5 14.375C44.7018 14.3099 44.8548 14.2188 44.959 14.1016C45.0632 13.9779 45.1185 13.8314 45.125 13.6621C45.151 13.0176 45.1641 12.2363 45.1641 11.3184C45.1641 11.0124 45.1608 10.4915 45.1543 9.75586C45.1478 9.02018 45.1445 8.37565 45.1445 7.82227C44.7734 7.5944 44.1484 7.46094 43.2695 7.42188C43.2435 7.31771 43.2305 7.23633 43.2305 7.17773C43.2305 7.13867 43.2435 7.06706 43.2695 6.96289C44.5326 6.83268 45.6328 6.56576 46.5703 6.16211C46.7331 6.22721 46.847 6.31185 46.9121 6.41602V7.95898C47.5436 7.4056 48.1491 6.96289 48.7285 6.63086C49.3079 6.29232 49.8939 6.12305 50.4863 6.12305C51.2285 6.12305 51.7526 6.33138 52.0586 6.74805C52.3711 7.16471 52.5339 7.81576 52.5469 8.70117L52.6445 13.6621C52.651 13.8314 52.6999 13.9779 52.791 14.1016C52.8887 14.2188 53.0254 14.3099 53.2012 14.375C53.3835 14.4401 53.5332 14.4889 53.6504 14.5215C53.7676 14.5475 53.9206 14.5736 54.1094 14.5996C54.1354 14.7298 54.1484 14.8177 54.1484 14.8633C54.1484 14.9154 54.1354 14.9805 54.1094 15.0586C53.2695 15.0195 52.4948 15 51.7852 15C51.0951 15 50.3301 15.0195 49.4902 15.0586C49.4642 14.9544 49.4512 14.8763 49.4512 14.8242C49.4512 14.7786 49.4642 14.7038 49.4902 14.5996C49.6595 14.5736 49.7995 14.5475 49.9102 14.5215C50.0273 14.4889 50.1576 14.4401 50.3008 14.375C50.4505 14.3099 50.5612 14.2188 50.6328 14.1016C50.7109 13.9779 50.75 13.8314 50.75 13.6621L50.7695 9.02344C50.7695 7.84505 50.4147 7.25586 49.7051 7.25586C49.041 7.25586 48.11 7.69857 46.9121 8.58398C46.9121 10.4785 46.9382 12.1712 46.9902 13.6621C46.9967 13.8314 47.0456 13.9779 47.1367 14.1016C47.2344 14.2188 47.3711 14.3099 47.5469 14.375C47.7227 14.4401 47.8691 14.4889 47.9863 14.5215C48.1035 14.5475 48.2565 14.5736 48.4453 14.5996Z" fill="black"/>
</svg>
