<svg width="200" height="200" viewBox="0 0 200 200" fill="none" xmlns="http://www.w3.org/2000/svg">
<path d="M100 52.3306C90.111 52.3306 80.4441 55.437 72.2217 61.257C63.9993 67.077 57.5907 75.3492 53.8063 85.0274C50.022 94.7057 49.0318 105.355 50.9611 115.63C52.8903 125.904 57.6523 135.342 64.6449 142.749C71.6375 150.157 80.5466 155.201 90.2455 157.245C99.9445 159.289 109.998 158.24 119.134 154.231C128.27 150.222 136.079 143.433 141.573 134.723C147.067 126.013 150 115.772 150 105.297C150 91.2492 144.732 77.7771 135.355 67.844C125.978 57.911 113.261 52.3306 100 52.3306ZM100 137.076C94.0666 137.076 88.2664 135.212 83.333 131.72C78.3996 128.228 74.5544 123.265 72.2838 117.458C70.0132 111.651 69.4191 105.261 70.5766 99.0968C71.7342 92.9321 74.5914 87.2695 78.7869 82.8251C82.9825 78.3806 88.3279 75.3539 94.1473 74.1277C99.9667 72.9015 105.999 73.5308 111.48 75.9361C116.962 78.3414 121.647 82.4147 124.944 87.6408C128.24 92.867 130 99.0112 130 105.297C130 113.725 126.839 121.808 121.213 127.768C115.587 133.728 107.956 137.076 100 137.076ZM191.399 32.2035C188.66 29.0963 185.346 26.6184 181.665 24.9237C177.984 23.2291 174.013 22.3537 170 22.3519H158.6C157.228 22.3472 155.873 22.0439 154.617 21.4607C153.361 20.8776 152.232 20.027 151.3 18.962L137.3 3.28409C136.359 2.2383 135.226 1.40749 133.97 0.84275C132.715 0.278011 131.364 -0.00871624 130 0.000201819H70.0002C68.6363 -0.00871624 67.2852 0.278011 66.0298 0.84275C64.7744 1.40749 63.6413 2.2383 62.7003 3.28409L48.7004 18.962C47.768 20.027 46.6388 20.8776 45.383 21.4607C44.1272 22.0439 42.7716 22.3472 41.4004 22.3519H30.0005C25.9867 22.3537 22.0161 23.2291 18.3349 24.9237C14.6537 26.6184 11.3404 29.0963 8.60064 32.2035C3.02812 38.4371 -0.0533595 46.7118 0.000699425 55.2967V167.055C-0.0275661 175.603 3.05208 183.835 8.60064 190.042C11.3164 193.189 14.6228 195.7 18.3079 197.415C21.993 199.13 25.9756 200.01 30.0005 200H170C174.024 200.01 178.007 199.13 181.692 197.415C185.377 195.7 188.684 193.189 191.399 190.042C196.948 183.835 200.028 175.603 199.999 167.055V55.2967C200.053 46.7118 196.972 38.4371 191.399 32.2035ZM179.999 167.055C180.052 170.232 178.941 173.308 176.899 175.636C176.022 176.645 174.955 177.449 173.766 177.997C172.578 178.544 171.295 178.822 170 178.813H30.0005C28.7048 178.822 27.4218 178.544 26.2336 177.997C25.0454 177.449 23.9782 176.645 23.1005 175.636C21.0588 173.308 19.9477 170.232 20.0006 167.055V55.2967C19.9477 52.1195 21.0588 49.0442 23.1005 46.7162C23.9782 45.7066 25.0454 44.9023 26.2336 44.3551C27.4218 43.8078 28.7048 43.5296 30.0005 43.5383H41.4004C45.4824 43.537 49.5213 42.6531 53.2697 40.941C57.0181 39.2288 60.3973 36.7242 63.2003 33.5807L74.3002 21.1866H125.7L136.8 33.5807L144.1 26.2713L136.8 33.5807C139.603 36.7242 142.982 39.2288 146.73 40.941C150.479 42.6531 154.518 43.537 158.6 43.5383H170C171.295 43.5296 172.578 43.8078 173.766 44.3551C174.955 44.9023 176.022 45.7066 176.899 46.7162C178.941 49.0442 180.052 52.1195 179.999 55.2967V167.055Z" fill="#222221"/>
</svg>
