<svg width="200" height="200" viewBox="0 0 200 200" fill="none" xmlns="http://www.w3.org/2000/svg">
<path d="M195.108 141.651C198.254 132.704 199.9 123.346 199.986 113.916C200.226 102.833 197.385 91.8865 191.748 82.174C189.014 77.784 185.317 74.0008 180.909 71.0799C176.004 67.9798 170.219 66.3676 164.325 66.4573H140.912C140.325 66.4759 139.741 66.3755 139.199 66.1629C138.657 65.9503 138.169 65.6304 137.768 65.2246C136.971 64.4117 136.51 63.3544 136.467 62.2456V61.1157L145.247 42.3172C147.036 38.4288 147.959 34.2323 147.957 29.9904C147.95 21.8199 144.519 13.9867 138.418 8.21294L136.034 5.95302C133.842 3.89435 131.212 2.30283 128.319 1.28486C125.426 0.266893 122.337 -0.154057 119.259 0.0501524C116.181 0.254362 113.184 1.07903 110.469 2.46901C107.754 3.85899 105.383 5.78225 103.516 8.11022L56.7982 66.4573C52.4111 61.7904 46.6302 58.4981 40.2228 57.0172C33.8153 55.5362 27.0842 55.9368 20.9225 58.1655C14.7608 60.3943 9.45986 64.346 5.72309 69.4962C1.98631 74.6465 -0.00965657 80.7518 3.51277e-05 87.0021V169.181C3.51277e-05 177.354 3.42603 185.193 9.52435 190.972C15.6227 196.751 23.8938 199.998 32.5181 199.998C40.1159 199.984 47.4583 197.397 53.2212 192.705C59.0415 197.373 66.4078 199.955 74.0328 199.998H140.044C147.202 200.065 154.245 198.29 160.422 194.862C169.284 189.551 176.414 182.012 181.017 173.085C186.644 163.003 191.358 152.488 195.108 141.651ZM32.5181 179.453C29.6433 179.453 26.8863 178.371 24.8535 176.445C22.8207 174.518 21.6787 171.905 21.6787 169.181V87.0021C21.6787 84.2777 22.8207 81.6648 24.8535 79.7384C26.8863 77.812 29.6433 76.7297 32.5181 76.7297C35.3928 76.7297 38.1499 77.812 40.1826 79.7384C42.2154 81.6648 43.3574 84.2777 43.3574 87.0021V169.181C43.3574 171.905 42.2154 174.518 40.1826 176.445C38.1499 178.371 35.3928 179.453 32.5181 179.453ZM157.821 169.181C155.585 172.204 152.751 174.786 149.475 176.783C146.608 178.337 143.346 179.119 140.044 179.043H74.0328C72.6062 179.05 71.1921 178.791 69.8715 178.28C68.5508 177.769 67.3497 177.016 66.3368 176.064L65.0361 174.625C65.2017 172.814 65.2017 170.992 65.0361 169.181V90.3919L120.425 20.4371L122.81 22.697C123.814 23.6568 124.609 24.7952 125.149 26.0467C125.688 27.2983 125.961 28.6385 125.953 29.9904C125.931 31.4092 125.599 32.8082 124.978 34.0993L115.981 53.5141V54.4386C115.041 56.9447 114.564 59.5858 114.572 62.2456C114.572 65.5141 115.255 68.7501 116.581 71.7672C117.907 74.7843 119.851 77.5226 122.3 79.8241C124.748 82.1257 127.654 83.9449 130.848 85.1769C134.043 86.4089 137.463 87.0292 140.912 87.0021H164.866C166.258 86.993 167.62 87.3873 168.769 88.132C171.767 90.3334 173.996 93.3405 175.164 96.7608C177.349 102.239 178.416 108.06 178.307 113.916C178.255 121.117 176.974 128.263 174.514 135.077C170.691 147.14 165.07 158.624 157.821 169.181Z" fill="#222221"/>
</svg>
