<svg width="200" height="200" viewBox="0 0 200 200" fill="none" xmlns="http://www.w3.org/2000/svg">
<path d="M100 0C80.2219 0 60.8879 5.8649 44.443 16.853C27.9981 27.8412 15.1809 43.459 7.61209 61.7316C0.0433288 80.0042 -1.937 100.111 1.92152 119.509C5.78004 138.907 15.3041 156.725 29.2894 170.711C43.2746 184.696 61.0929 194.22 80.491 198.078C99.8891 201.937 119.996 199.957 138.268 192.388C156.541 184.819 172.159 172.002 183.147 155.557C194.135 139.112 200 119.778 200 100C200 86.8678 197.413 73.8642 192.388 61.7316C187.363 49.5991 179.997 38.5752 170.711 29.2893C161.425 20.0035 150.401 12.6375 138.268 7.61204C126.136 2.58658 113.132 0 100 0ZM100 180C84.1775 180 68.7103 175.308 55.5544 166.518C42.3985 157.727 32.1447 145.233 26.0897 130.615C20.0347 115.997 18.4504 99.9112 21.5372 84.3928C24.624 68.8743 32.2433 54.6196 43.4315 43.4314C54.6197 32.2432 68.8743 24.624 84.3928 21.5372C99.9113 18.4504 115.997 20.0346 130.615 26.0896C145.233 32.1446 157.727 42.3984 166.518 55.5544C175.308 68.7103 180 84.1775 180 100C180 121.217 171.571 141.566 156.569 156.568C141.566 171.571 121.217 180 100 180ZM55 80C55 77.0333 55.8798 74.1332 57.528 71.6664C59.1762 69.1997 61.5189 67.2771 64.2598 66.1418C67.0007 65.0065 70.0167 64.7094 72.9264 65.2882C75.8361 65.867 78.5089 67.2956 80.6066 69.3934C82.7044 71.4912 84.133 74.1639 84.7118 77.0736C85.2906 79.9833 84.9935 82.9993 83.8582 85.7402C82.7229 88.4811 80.8003 90.8238 78.3336 92.472C75.8668 94.1202 72.9668 95 70 95C66.0218 95 62.2065 93.4196 59.3934 90.6066C56.5804 87.7935 55 83.9782 55 80ZM145 80C145 82.9667 144.12 85.8668 142.472 88.3335C140.824 90.8003 138.481 92.7229 135.74 93.8582C132.999 94.9935 129.983 95.2905 127.074 94.7118C124.164 94.133 121.491 92.7044 119.393 90.6066C117.296 88.5088 115.867 85.8361 115.288 82.9263C114.709 80.0166 115.007 77.0006 116.142 74.2597C117.277 71.5188 119.2 69.1762 121.666 67.5279C124.133 65.8797 127.033 65 130 65C133.978 65 137.794 66.5803 140.607 69.3934C143.42 72.2064 145 76.0217 145 80ZM137.3 113.9C138.302 114.54 139.168 115.371 139.847 116.348C140.526 117.324 141.005 118.425 141.256 119.587C141.507 120.749 141.526 121.95 141.31 123.119C141.094 124.289 140.649 125.404 140 126.4C135.629 132.917 129.721 138.259 122.798 141.952C115.874 145.646 108.147 147.578 100.3 147.578C92.4527 147.578 84.7261 145.646 77.8024 141.952C70.8786 138.259 64.9706 132.917 60.6 126.4C59.9368 125.422 59.4728 124.322 59.2345 123.165C58.9962 122.007 58.9882 120.814 59.2111 119.653C59.4339 118.492 59.8833 117.387 60.5334 116.4C61.1835 115.412 62.0217 114.563 63 113.9C63.98 113.228 65.0845 112.76 66.2485 112.522C67.4124 112.283 68.6123 112.281 69.7773 112.514C70.9422 112.747 72.0488 113.211 73.0316 113.878C74.0145 114.546 74.8538 115.403 75.5 116.4C78.2366 120.525 81.9516 123.91 86.3137 126.251C90.6758 128.592 95.5494 129.817 100.5 129.817C105.451 129.817 110.324 128.592 114.686 126.251C119.049 123.91 122.763 120.525 125.5 116.4C126.794 114.578 128.726 113.309 130.912 112.846C133.098 112.383 135.378 112.759 137.3 113.9Z" fill="#222221"/>
</svg>
